<?xml version="1.0" encoding="utf-8"?>
<svg id="master-artboard" viewBox="0 0 1369 259" version="1.1" xmlns="http://www.w3.org/2000/svg" x="0px" y="0px" style="enable-background:new 0 0 1400 980;" width="1369px" height="259px"><rect id="ee-background" x="0" y="0" width="1369" height="259" style="fill: white; fill-opacity: 0; pointer-events: none;"/><g transform="matrix(3.181635618209839, 0, 0, 3.181635618209839, -31.297352826943097, -30.59185791015625)"><g id="SvgjsG1068" featurekey="root" fill="#f26322" transform="matrix(1,0,0,1,NaN,NaN)"/><g id="SvgjsG1069" featurekey="symbol1" fill="#ffffff" transform="matrix(0.9271523178807947,0,0,0.9271523178807947,-1.867548961513089,3.672184281001818)"><g xmlns="http://www.w3.org/2000/svg"><path fill="#fff" d="M28.3,21.6c-0.1,0-0.3,0-0.4-0.1l-14.5-6.4c-0.4-0.2-0.6-0.5-0.6-0.9s0.2-0.8,0.6-0.9l14.5-6.4   c0.3-0.1,0.5-0.1,0.8,0l14.5,6.4c0.4,0.2,0.6,0.5,0.6,0.9s-0.2,0.8-0.6,0.9l-14.5,6.4C28.6,21.5,28.5,21.6,28.3,21.6z M16.3,14.1   l12.1,5.3l12.1-5.3L28.3,8.8L16.3,14.1z" style="fill: #f26333;"/><path d="M 27.299999 20.6 H 29.299999 V 92.699999 H 27.299999 V 20.6 Z" fill="#fff" style="fill: #f26333;"/><path fill="#fff" d="M28.3,93.7c-0.1,0-0.3,0-0.4-0.1l-14.5-6.4c-0.4-0.2-0.6-0.5-0.6-0.9V14.1h2v71.5l13.5,6l13.5-6V14.1h2   v72.1c0,0.4-0.2,0.8-0.6,0.9l-14.5,6.4C28.6,93.6,28.5,93.7,28.3,93.7z" style="fill: #f26333;"/><path fill="#fff" d="M50.8,35.7c-0.1,0-0.3,0-0.4-0.1l-7.9-3.5l0.8-1.8l7.5,3.3l12.1-5.3L50.8,23l-7.5,3.3l-0.8-1.8l7.9-3.5   c0.3-0.1,0.5-0.1,0.8,0l14.5,6.4c0.4,0.2,0.6,0.5,0.6,0.9s-0.2,0.8-0.6,0.9l-14.5,6.4C51,35.7,50.9,35.7,50.8,35.7z" style="fill: #f26333;"/><path d="M 49.799999 34.700001 H 51.799999 V 82.799999 H 49.799999 V 34.700001 Z" fill="#fff" style="fill: #f26333;"/><path fill="#fff" d="M50.8,83.8c-0.1,0-0.3,0-0.4-0.1l-7.9-3.5l0.8-1.8l7.5,3.3l13.5-6V28.3h2v48.1c0,0.4-0.2,0.8-0.6,0.9   l-14.5,6.4C51,83.8,50.9,83.8,50.8,83.8z" style="fill: #f26333;"/><path fill="#fff" d="M72.8,50.1c-0.1,0-0.3,0-0.4-0.1l-7.5-3.3l0.8-1.8l7.1,3.1l12.1-5.3l-12.1-5.3l-7.1,3.1l-0.8-1.8l7.5-3.3   c0.3-0.1,0.5-0.1,0.8,0l14.5,6.4c0.4,0.2,0.6,0.5,0.6,0.9s-0.2,0.8-0.6,0.9L73.2,50C73.1,50,73,50.1,72.8,50.1z" style="fill: #f26333;"/><path d="M 71.800003 49.099998 H 73.800003 V 72.999998 H 71.800003 V 49.099998 Z" fill="#fff" style="fill: #f26333;"/><path fill="#fff" d="M72.8,73.9c-0.1,0-0.3,0-0.4-0.1l-7.6-3.3l0.8-1.8l7.2,3.2l13.5-6V42.7h2v23.9c0,0.4-0.2,0.8-0.6,0.9   l-14.5,6.4C73.1,73.9,73,73.9,72.8,73.9z" style="fill: #f26333;"/></g></g><g id="SvgjsG1070" featurekey="text1" fill="#ffffff" transform="matrix(3.797468155780076,0,0,3.797468155780076,93.16455976414066,-23.3670872323236)"><path d="M3.78 9.84 l5.16 11.88 l5.16 -11.88 l1.88 0 l0 14.16 l-1.32 0 l0 -12.48 l-0.04 0 l-5.4 12.48 l-0.58 0 l-5.48 -12.48 l-0.04 0 l0 12.48 l-1.32 0 l0 -14.16 l1.98 0 z M20.16 21.44 q0 0.76 0.61 1.24 t1.51 0.48 q1.62 0 2.41 -0.85 t0.79 -2.31 l0 -0.64 l-1.44 0 q-1.84 0 -2.86 0.56 t-1.02 1.52 z M22.880000000000003 14.52 q1.86 0 2.76 0.86 t0.92 2.4 l0 2.74 q0 2.24 0.18 3.48 l-1.12 0 q-0.12 -0.62 -0.12 -1.5 l-0.04 0 q-1 1.74 -3.22 1.74 q-1.5 0 -2.38 -0.74 t-0.9 -2 q0 -1.54 1.33 -2.32 t3.71 -0.78 l1.48 0 l0 -0.54 q0 -1.14 -0.7 -1.7 t-1.9 -0.56 q-1.6 0 -2.82 1.04 l-0.7 -0.82 q0.66 -0.64 1.63 -0.97 t1.89 -0.33 z M30.560000000000002 19.259999999999998 q0 1.52 1.07 2.57 t2.59 1.09 q1.5 0 2.56 -1.06 t1.1 -2.6 q0 -1.52 -1.08 -2.58 t-2.6 -1.08 q-1.52 0 -2.58 1.09 t-1.06 2.57 z M34.300000000000004 14.52 q2.36 0.02 3.5 1.8 l0.04 0 l0 -1.56 l1.2 0 l0 8.6 q0 2.7 -1.3 4.07 t-3.64 1.37 q-1.4 0 -2.62 -0.51 t-1.94 -1.43 l0.94 -0.88 q1.24 1.74 3.64 1.74 q3.72 0 3.72 -4.14 l0 -1.38 l-0.04 0 q-1.12 1.76 -3.5 1.8 q-2 0 -3.44 -1.37 t-1.5 -3.37 q0 -1.96 1.47 -3.34 t3.47 -1.4 z M49.22 18.6 q0 -1.26 -0.94 -2.13 t-2.28 -0.87 q-1.3 0 -2.24 0.87 t-1.1 2.13 l6.56 0 z M46.080000000000005 14.52 q1.92 0 3.12 1.24 t1.22 3.2 l0 0.72 l-7.76 0 q0.08 1.56 1.03 2.51 t2.47 0.97 q0.94 0 1.79 -0.45 t1.31 -1.19 l0.88 0.74 q-1.3 1.98 -4 1.98 q-2.12 -0.02 -3.39 -1.38 t-1.29 -3.5 q0 -2.08 1.31 -3.45 t3.31 -1.39 z M55.62 14.52 q2.34 0 3.24 1.74 l-1.08 0.64 q-0.68 -1.3 -2.16 -1.3 q-0.8 0 -1.39 0.43 t-0.59 1.05 t0.5 0.99 t1.74 0.59 q1.84 0.32 2.54 0.95 t0.7 1.77 q0 1.3 -0.93 2.08 t-2.43 0.78 q-2.64 -0.02 -3.7 -1.88 l1.06 -0.72 q0.34 0.7 1.11 1.11 t1.57 0.41 q0.92 0 1.52 -0.51 t0.6 -1.19 q0 -0.62 -0.49 -1.02 t-2.13 -0.72 q-1.42 -0.28 -2.14 -0.86 t-0.72 -1.68 q0 -1.18 0.9 -1.92 t2.28 -0.74 z M62.3 12.1 l1.2 0 l0 2.66 l2.64 0 l0 1.08 l-2.64 0 l0 6.04 q0 0.58 0.34 0.93 t0.94 0.35 q0.66 0 1.36 -0.32 l0.1 1.08 q-0.9 0.32 -1.58 0.32 q-1.18 0 -1.77 -0.66 t-0.59 -1.7 l0 -6.04 l-2 0 l0 -1.08 l2 0 l0 -2.66 z M69.05999999999999 21.44 q0 0.76 0.61 1.24 t1.51 0.48 q1.62 0 2.41 -0.85 t0.79 -2.31 l0 -0.64 l-1.44 0 q-1.84 0 -2.86 0.56 t-1.02 1.52 z M71.77999999999999 14.52 q1.86 0 2.76 0.86 t0.92 2.4 l0 2.74 q0 2.24 0.18 3.48 l-1.12 0 q-0.12 -0.62 -0.12 -1.5 l-0.04 0 q-1 1.74 -3.22 1.74 q-1.5 0 -2.38 -0.74 t-0.9 -2 q0 -1.54 1.33 -2.32 t3.71 -0.78 l1.48 0 l0 -0.54 q0 -1.14 -0.7 -1.7 t-1.9 -0.56 q-1.6 0 -2.82 1.04 l-0.7 -0.82 q0.66 -0.64 1.63 -0.97 t1.89 -0.33 z M79.33999999999999 12.1 l1.2 0 l0 2.66 l2.64 0 l0 1.08 l-2.64 0 l0 6.04 q0 0.58 0.34 0.93 t0.94 0.35 q0.66 0 1.36 -0.32 l0.1 1.08 q-0.9 0.32 -1.58 0.32 q-1.18 0 -1.77 -0.66 t-0.59 -1.7 l0 -6.04 l-2 0 l0 -1.08 l2 0 l0 -2.66 z M87.83999999999999 14.52 q2.34 0 3.24 1.74 l-1.08 0.64 q-0.68 -1.3 -2.16 -1.3 q-0.8 0 -1.39 0.43 t-0.59 1.05 t0.5 0.99 t1.74 0.59 q1.84 0.32 2.54 0.95 t0.7 1.77 q0 1.3 -0.93 2.08 t-2.43 0.78 q-2.64 -0.02 -3.7 -1.88 l1.06 -0.72 q0.34 0.7 1.11 1.11 t1.57 0.41 q0.92 0 1.52 -0.51 t0.6 -1.19 q0 -0.62 -0.49 -1.02 t-2.13 -0.72 q-1.42 -0.28 -2.14 -0.86 t-0.72 -1.68 q0 -1.18 0.9 -1.92 t2.28 -0.74 z" style="fill: #ffffff;"/></g></g></svg>